<?xml version="1.0" ?><!DOCTYPE svg  PUBLIC '-//W3C//DTD SVG 1.1//EN'  'http://www.w3.org/Graphics/SVG/1.1/DTD/svg11.dtd'><svg height="2048px" style="shape-rendering:geometricPrecision; text-rendering:geometricPrecision; image-rendering:optimizeQuality; fill-rule:evenodd; clip-rule:evenodd" viewBox="0 0 2048 2048" width="2048px" xml:space="preserve" xmlns="http://www.w3.org/2000/svg" xmlns:xlink="http://www.w3.org/1999/xlink"><defs><style type="text/css">
   <![CDATA[
    .fil1 {fill:none}
    .fil0 {fill:#424242;fill-rule:nonzero}
   ]]>
  </style></defs><g id="Layer_x0020_1"><g id="_246132968"><path class="fil0" d="M1394.29 1184.02l-98.3871 -310.739 -0.00826772 0.00236221c-2.72835,-8.61733 2.04685,-17.8169 10.6642,-20.5453 1.76339,-0.558662 3.5504,-0.801969 5.30079,-0.762993l79.6973 0c7.75158,0 14.2465,5.39056 15.9378,12.6295l41.7532 146.025 38.4945 -146.438 -0.0354331 -0.00944883c1.95118,-7.42087 8.69764,-12.3059 16.0394,-12.2067l79.2449 0c7.85197,0 14.413,5.53111 16.0016,12.9083l37.037 145.51 42.776 -146.589 15.665 4.53898 -15.7134 -4.58504c2.11063,-7.23071 8.77324,-11.8949 15.9579,-11.7827l80.9115 0c9.03898,0 16.3689,7.32875 16.3689,16.3677 0,2.21221 -0.440552,4.32284 -1.23662,6.24686l-99.5658 310.06 -15.5374 -4.98662 15.5847 5.00433c-2.26181,7.04292 -8.84528,11.4933 -15.8799,11.3634l-78.8599 0c-7.89095,0 -14.4791,-5.58544 -16.0252,-13.0169l-37.487 -139.948 -37.0701 140.753 -15.7914 -4.1563 15.828 4.16811c-1.95945,7.44331 -8.74371,12.3331 -16.1126,12.1996l-79.7729 0c-7.52953,0 -13.8721,-5.08701 -15.7795,-12.0106z" id="_246133184"/><path class="fil0" d="M874.729 1184.02l-98.3871 -310.739 -0.00826772 0.00236221c-2.72835,-8.61733 2.04685,-17.8169 10.6642,-20.5453 1.76339,-0.558662 3.5504,-0.801969 5.30079,-0.762993l79.6973 0c7.75158,0 14.2465,5.39056 15.9378,12.6295l41.7532 146.025 38.4945 -146.438 -0.0366142 -0.00944883c1.95236,-7.42087 8.69883,-12.3059 16.0406,-12.2067l79.2449 0c7.85197,0 14.413,5.53111 16.0004,12.9083l37.0382 145.51 42.776 -146.589 15.6638 4.53898 -15.7122 -4.58504c2.10945,-7.23071 8.77324,-11.8949 15.9579,-11.7827l80.9115 0c9.03898,0 16.3677,7.32875 16.3677,16.3677 0,2.21221 -0.43937,4.32284 -1.23543,6.24686l-99.5658 310.06 -15.5374 -4.98662 15.5847 5.00433c-2.26181,7.04292 -8.84528,11.4933 -15.8799,11.3634l-78.8599 0c-7.89095,0 -14.4791,-5.58544 -16.0252,-13.0169l-37.487 -139.948 -37.0701 140.753 -15.7914 -4.1563 15.828 4.16811c-1.95945,7.44331 -8.74607,12.3331 -16.1138,12.1996l-79.7717 0c-7.52953,0 -13.8721,-5.08701 -15.7795,-12.0106z" id="_246133040"/><path class="fil0" d="M355.162 1184.02l-98.3871 -310.739 -0.00826772 0.00236221c-2.72835,-8.61733 2.04685,-17.8169 10.6642,-20.5453 1.76339,-0.558662 3.5504,-0.801969 5.30079,-0.762993l79.6973 0c7.75158,0 14.2465,5.39056 15.9378,12.6295l41.7532 146.025 38.4945 -146.438 -0.0366142 -0.00944883c1.95236,-7.42087 8.69883,-12.3059 16.0406,-12.2067l79.2449 0c7.85197,0 14.413,5.53111 16.0004,12.9083l37.0382 145.51 42.776 -146.589 15.6638 4.53898 -15.7122 -4.58504c2.10945,-7.23071 8.77324,-11.8949 15.9579,-11.7827l80.9115 0c9.03898,0 16.3677,7.32875 16.3677,16.3677 0,2.21221 -0.43937,4.32284 -1.23543,6.24686l-99.5658 310.06 -15.5374 -4.98662 15.5847 5.00433c-2.26181,7.04292 -8.84646,11.4933 -15.8799,11.3634l-78.8599 0c-7.89095,0 -14.4791,-5.58544 -16.0252,-13.0169l-37.487 -139.948 -37.0701 140.753 -15.7914 -4.1563 15.828 4.16811c-1.95945,7.44331 -8.74607,12.3331 -16.1138,12.1996l-79.7717 0c-7.52953,0 -13.8721,-5.08701 -15.7795,-12.0106z" id="_246133112"/></g></g><rect class="fil1" height="2048" width="2048"/></svg>