<?xml version="1.0" ?><svg viewBox="0 0 512 512" xmlns="http://www.w3.org/2000/svg"><g id="Website"><path d="M309.69,422.6a175.1857,175.1857,0,0,0,105.7-94.43h-55.58C350.08,368.84,332.3,402.09,309.69,422.6Z"/><path d="M270,328.17v86.45c26.18-8.89,48.72-42,60.69-86.45Z"/><path d="M242,414.62V328.17H181.2405C193.21,372.62,215.75,405.73,242,414.62Z"/><path d="M152.19,328.17H96.61A174.9177,174.9177,0,0,0,202.3806,422.6C179.6306,402.16,161.85,368.91,152.19,328.17Z"/><path d="M425.26,211.55H364.92A325.82,325.82,0,0,1,368,256a321.8544,321.8544,0,0,1-3.01,44.17h60.34a174.9418,174.9418,0,0,0-.07-88.62Z"/><path d="M340,256a294.7885,294.7885,0,0,0-3.43-44.45H270v88.62h66.57A291.05,291.05,0,0,0,340,256Z"/><path d="M172,256a291.2748,291.2748,0,0,0,3.36,44.17H242V211.55H175.36A295.0165,295.0165,0,0,0,172,256Z"/><path d="M144,256a325.9942,325.9942,0,0,1,3.01-44.45h-60.27a174.9166,174.9166,0,0,0-.07,88.62h60.27A333.492,333.492,0,0,1,144,256Z"/><path d="M415.25,183.55A174.8924,174.8924,0,0,0,309.69,89.4c22.61,20.44,40.32,53.62,50.05,94.15Z"/><path d="M270,97.38v86.17h60.62C318.65,139.24,296.18,106.2,270,97.38Z"/><path d="M181.3105,183.55H242V97.38C215.75,106.2,193.28,139.24,181.3105,183.55Z"/><path d="M202.2405,89.4A174.96,174.96,0,0,0,96.75,183.55h55.44C161.92,143.02,179.6306,109.84,202.2405,89.4Z"/></g></svg>